#!OML:ASF F:\VICON\USERDATA\INSTALL\rory3\rory3.ASF
:FULLY-SPECIFIED
:DEGREES
81
root -0.08076293243470017 17.85683958909913 30.312048711098903 -1.5266998646131258 -4.4085148096907165 -7.692310501054864
lfemur -27.06697454683482 0.8720349810111117 -12.73136490830567
ltibia 44.26385818755921
lfoot -3.1945712258829753 -1.1420765119875622
ltoes -3.960780810743448
rfemur -3.43726581838151 6.66204017568209 32.0106128555241
rtibia 27.101103764737914
rfoot -8.160414450842564 -7.17177209036348
rtoes 0.40459005185742924
lowerback 9.374146131385205 1.9900050366195 6.140736978178807
upperback 0.3837717645039149 2.2938190481232335 2.27632788498126
thorax -5.011881821408761 0.9432399078020501 -0.7447525720466278
lowerneck -16.669212537680973 -2.8804416783529114 -2.451251068729654
upperneck 20.73265806256596 -3.610542761131091 1.4506059398441158
head 9.363807446116523 -1.7979569804410505 0.3010590196640608
lclavicle -1.95764437030389e-15 8.913786605679019e-16
lhumerus -33.842020707205144 2.1233668755655364 82.5535815543492
lradius 28.32291455376292
lwrist 4.612543973085763
lhand -26.882755869930442 24.547279404498937
lfingers 7.12502
lthumb -0.4168815351034708 54.43203027186576
rclavicle -1.9512231334531944e-15 9.086309916852226e-16
rhumerus -25.75977037078195 -12.623008390095883 -80.35534898338744
rradius 25.954090595475794
rwrist 1.583238324043096
rhand -17.413131686211734 22.86186444910581
rfingers 7.12502
rthumb 8.914364097453227 -6.856209506546827
82
root -0.045521776782460555 17.80426168784011 30.825469884707907 -1.0182795557858855 -4.9493099321247715 -8.012329093718074
lfemur -26.532360523250695 -1.1678695932271979 -11.42747649501553
ltibia 33.32428406691859
lfoot -3.238736302721518 -1.220915914026993
ltoes -4.053323740751427
rfemur -1.212443928354796 6.715839772126193 32.43186361758945
rtibia 25.479906079867288
rfoot -7.923404650368026 -6.886778561318799
rtoes 0.2986820393802412
lowerback 9.26486493758174 2.1522414933713296 6.229704865651864
upperback 0.3309484361263593 2.689739811754473 2.2489519362528316
thorax -4.975173369160628 1.2012222968045396 -1.2941715108729448
lowerneck -16.665608185835662 -2.8760610406428997 -2.4408761937559698
upperneck 20.725804183998637 -3.6107728553371983 1.4190018469032668
head 9.356577408112688 -1.7947373608769046 0.2938095338106953
lclavicle -1.957644374972706e-15 8.91378655646954e-16
lhumerus -34.30526207233016 2.6138630705103276 82.33172092229336
lradius 27.722558138189193
lwrist 4.523651164070038
lhand -26.87412023834157 24.442900309583976
lfingers 7.12502
lthumb -0.4053995332749983 54.356551487895985
rclavicle -1.9512231336230883e-15 9.086309915797267e-16
rhumerus -25.745416096113647 -12.764814080325754 -80.42288016375362
rradius 26.690988339884864
rwrist 1.2452045268231053
rhand -17.387808237841575 22.84293968397103
rfingers 7.12502
rthumb 8.93518992534991 -6.8674712421802075
83
root -0.0009593162083444962 17.739776834435528 31.386430285483875 -0.6830464321366583 -5.445728353024036 -8.126295050345703
lfemur -25.25704882516981 -4.157473065458621 -9.771280458854942
ltibia 21.78585151252263
lfoot -2.933531462915212 -1.1637622501886489
ltoes -4.228693183875453
rfemur 0.7731419569224212 6.616515481479819 32.6007254462087
rtibia 23.63699454726875
rfoot -7.25323543558485 -6.560669656398392
rtoes 0.27105650786320856
lowerback 9.192551132879654 2.287975674574906 6.1786921570685225
upperback 0.28320374804982906 3.009954774421306 2.215652789291482
thorax -4.922045688371631 1.42153690971954 -1.746900763634077
lowerneck -16.68223144377908 -2.863877944433755 -2.4266965324217646
upperneck 20.726988404748223 -3.6035858813156643 1.3864659589211754
head 9.352040889431422 -1.7879487952300905 0.28702765739711417
lclavicle -1.957644383142676e-15 8.913786449997227e-16
lhumerus -34.76416849581278 2.775961409656957 82.13898304186408
lradius 27.123604568273073
lwrist 4.4185560598258995
lhand -26.866444453038394 24.327955655570353
lfingers 7.12502
lthumb -0.39680489362097154 54.26430364373419
rclavicle -1.9512231281460203e-15 9.086309968164482e-16
rhumerus -25.805747633293095 -12.901586751771887 -80.52732391313671
rradius 27.348194116093897
rwrist 1.1193383751920338
rhand -17.365680415976904 22.812873768645396
rfingers 7.12502
rthumb 8.959016886515322 -6.869444478917102
84
root 0.058067715206148895 17.677294508421884 32.12473773434709 -0.6205469490502895 -5.717512421363723 -7.925320262071825
lfemur -23.66771600150649 -6.088688206669545 -9.064557217630224
ltibia 12.200241788346432
lfoot -2.143679815921148 -1.201818246973033
ltoes -4.525397705713929
rfemur 2.0555276099670188 6.519197752676441 32.319906201338505
rtibia 22.519433762531538
rfoot -6.79909422633568 -6.319027178570046
rtoes 0.02247209071053602
lowerback 9.156042057865102 2.3960130681994007 5.944339818043055
upperback 0.2387307589036089 3.227627958046111 2.155491813964702
thorax -4.861626486972551 1.5935066459369498 -2.086359529290384
lowerneck -16.67093533807929 -2.840765547101739 -2.3948821809258534
upperneck 20.750698831141328 -3.5934981805419133 1.3638489805401002
head 9.354996762271234 -1.778735071742283 0.2873223793557423
lclavicle -1.9576443909392363e-15 8.913786384803726e-16
lhumerus -34.93996200901938 2.8265460518452032 82.0069556567423
lradius 26.540425151523714
lwrist 4.252973342624806
lhand -26.862641448079113 24.202360543815107
lfingers 7.12502
lthumb -0.389694128723467 54.161573011416145
rclavicle -1.951223128138361e-15 9.086309966679732e-16
rhumerus -25.93094217845801 -13.121477069212084 -80.5744451701626
rradius 27.91049584512809
rwrist 1.182624350361114
rhand -17.34420546387846 22.784314874929667
rfingers 7.12502
rthumb 8.985474950352863 -6.869655925512318
